<svg class="svg-inline--fa jwi-jw-square fa-w-16" aria-hidden="true" focusable="false" data-prefix="jwf-jw-icons-all" data-icon="jw-square" role="img" xmlns="http://www.w3.org/2000/svg" viewBox="0 0 24 24" data-fa-i2svg=""><path fill="currentColor" d="M9.143 13.613c0 .755-.173 1.36-.517 1.815-.337.447-.877.67-1.617.67-.447 0-.828-.07-1.144-.208a4.123 4.123 0 01-.869-.517l.429-.792c.242.19.488.345.737.462.25.11.51.165.781.165.389 0 .686-.143.891-.429.205-.286.308-.668.308-1.144v-5.39h1v5.368zm3.594.792l1.442-5.863h.846l1.354 5.863 1.595-6.16h1.034l-2.267 7.778h-.868l-1.287-5.655-1.463 5.655h-.858L10.13 8.245h1.078l1.528 6.16z M20.5 3a.5.5 0 01.5.5v17a.498.498 0 01-.5.5h-17a.5.5 0 01-.5-.5v-17a.5.5 0 01.5-.5h17zM4 20h16V4H4v16z"/></svg>