<svg class="svg-inline--fa jwi-sign-language fa-w-16" aria-hidden="true" focusable="false" data-prefix="jwf-jw-icons-all" data-icon="sign-language" role="img" xmlns="http://www.w3.org/2000/svg" viewBox="0 0 24 24" data-fa-i2svg=""><path fill="currentColor" d="M7.974 8.335a1.167 1.167 0 011.645.22c.56.747.521 1.785-.094 2.488L8.372 12.36l7.195.327h.007l.018.001a1.497 1.497 0 01.228.024c.139.023.33.07.529.169.2.1.415.258.579.503.166.25.26.56.26.928 0 .3-.063.56-.175.78.028.013.057.024.086.039.2.1.415.258.579.503.166.25.26.56.26.928 0 .369-.094.679-.26.928a1.49 1.49 0 01-.58.504 1.839 1.839 0 01-.428.148c.088.187.142.41.142.67 0 .734-.433 1.158-.819 1.373a2.18 2.18 0 01-.722.245l-.016.002-.006.001h-.003v.001h-.002a.487.487 0 01-.056.003h-.356c.069.185.105.394.105.625 0 .369-.093.679-.26.928a1.478 1.478 0 01-.578.504 1.88 1.88 0 01-.757.192l-.018.001h-.01c0-.003-.002-.04-.002-.5v.5H8.439c-1.284 0-2.975-.379-4.36-1.274-1.403-.907-2.516-2.363-2.516-4.476 0-2.075.953-3.714 2.214-5.079 1.249-1.35 2.853-2.486 4.198-3.523zm.845.819a.167.167 0 00-.234-.028c-1.395 1.077-2.9 2.14-4.074 3.41-1.162 1.258-1.948 2.666-1.949 4.401 0 1.702.874 2.87 2.058 3.636 1.201.776 2.698 1.114 3.817 1.114h4.872a.644.644 0 00.097-.01.883.883 0 00.245-.078.49.49 0 00.195-.164c.044-.067.091-.18.091-.373s-.046-.306-.091-.373a.49.49 0 00-.195-.164.887.887 0 00-.342-.088h-2.996a.5.5 0 010-1h4.835a1.186 1.186 0 00.359-.126c.176-.098.306-.236.306-.499 0-.262-.13-.4-.306-.499a1.182 1.182 0 00-.359-.126h-4.835a.5.5 0 010-1h5.996a.617.617 0 00.097-.01.883.883 0 00.245-.078.49.49 0 00.195-.164c.044-.067.091-.18.091-.373s-.047-.306-.091-.373a.49.49 0 00-.195-.164.887.887 0 00-.342-.088h-5.997a.5.5 0 010-1h5.247a.644.644 0 00.097-.01.883.883 0 00.245-.078.49.49 0 00.195-.164c.044-.067.091-.18.091-.373s-.047-.306-.091-.373a.49.49 0 00-.195-.164.887.887 0 00-.342-.088h-.019l-8.25-.376a.5.5 0 01-.353-.828l1.835-2.099a.978.978 0 00.047-1.23zm8.421-7.745c.212-.07.477-.11.767-.053.293.059.578.211.839.472.211.212.352.44.428.676l.088-.035c.212-.07.476-.11.766-.052.294.059.58.21.84.471s.413.547.471.84c.058.29.018.554-.052.766-.055.163-.13.301-.198.408.194.07.39.189.574.373.518.519.512 1.126.391 1.55a2.182 2.182 0 01-.306.642l-.03.043-.01.012-.004.005-.002.002v.002H21.8a.501.501 0 01-.038.042l-.251.252c.179.082.352.203.516.367.261.26.413.546.472.84.058.29.018.554-.053.766a1.885 1.885 0 01-.362.63l-.037.04-.012.014-.007.007-.354-.353.353.354-3.363 3.364a.501.501 0 01-.708-.708l3.361-3.36.011-.013a.86.86 0 00.169-.292.487.487 0 00.021-.253.649.649 0 00-.198-.329.653.653 0 00-.329-.199.489.489 0 00-.253.021.889.889 0 00-.228.12c-.03.02-.05.039-.064.05l-.012.011-2.12 2.118a.5.5 0 01-.707-.707l3.42-3.419a1.187 1.187 0 00.164-.343c.056-.194.05-.383-.136-.569-.186-.185-.375-.192-.569-.137a1.186 1.186 0 00-.342.165l-3.42 3.42a.5.5 0 01-.707-.708l4.24-4.24.01-.012a.896.896 0 00.17-.292.49.49 0 00.021-.253.65.65 0 00-.198-.33.648.648 0 00-.33-.198.488.488 0 00-.252.022.89.89 0 00-.293.169l-.012.01-4.24 4.24a.5.5 0 01-.707-.706l3.71-3.71.01-.012a.945.945 0 00.17-.293.49.49 0 00.02-.253.653.653 0 00-.198-.33.65.65 0 00-.328-.197.49.49 0 00-.254.021.886.886 0 00-.292.17l-.013.01-.014.013-6.098 5.568a.5.5 0 01-.835-.336l-.187-2.782a.978.978 0 00-.837-.903.167.167 0 00-.185.146c-.099.766-.211 1.525-.305 2.315a.5.5 0 11-.993-.118c.094-.789.212-1.59.306-2.324a1.168 1.168 0 011.319-1.009 1.978 1.978 0 011.693 1.826l.116 1.747 5.32-4.856.005-.005.012-.012.041-.037a1.884 1.884 0 01.63-.362z"/></svg>